<svg width="101" height="17" viewBox="0 0 101 17" fill="none" xmlns="http://www.w3.org/2000/svg">
<path fill-rule="evenodd" clip-rule="evenodd" d="M60.1831 0.617895L58.711 1.23569V2.62934V4.02299H57.5837H56.4563L56.4863 5.35151L56.5163 6.68004L57.6136 6.70974L58.711 6.73944L58.7119 9.57519C58.7127 12.8028 58.7909 13.4714 59.2871 14.4974C59.6382 15.2234 60.7429 16.5268 61.007 16.5268C61.0795 16.5268 61.4718 16.1197 61.8788 15.6222C63.0393 14.2035 62.9771 14.3845 62.476 13.8864C61.7248 13.1395 61.7087 13.052 61.7087 9.70513V6.73214H62.7793L63.8499 6.73214V5.37756V4.02299L62.7816 4.02299H61.7132L61.6842 2.01155L61.6552 0L60.1831 0.617895ZM6.14419 1.72656C3.29327 2.11679 0.919086 4.15563 0.185399 6.84384C-0.0386789 7.66482 -0.0645876 9.37127 0.134759 10.1707C0.213449 10.4859 0.472215 11.1414 0.709997 11.6273C1.06886 12.3609 1.30772 12.6709 2.11763 13.4548C3.62355 14.9123 5.01833 15.4801 7.10088 15.4832C8.69341 15.4857 10.0341 15.066 11.2974 14.1696C11.5703 13.976 11.823 13.8176 11.859 13.8176C11.8951 13.8176 12.4185 14.171 13.0223 14.6029L14.1202 15.3881L14.1485 11.9382C14.164 10.0409 14.164 6.97117 14.1485 5.11686L14.1202 1.74532L12.9739 2.57974L11.8275 3.41416L11.3226 3.03884C9.93938 2.01092 7.87964 1.48899 6.14419 1.72656ZM15.7797 8.60104V15.4848H17.1714H18.5632L18.5632 11.1987C18.5632 8.21499 18.6015 6.7883 18.6891 6.50363C18.8538 5.96858 19.5668 5.18897 20.1114 4.94806C21.111 4.50626 22.6449 4.81646 23.3212 5.59711C23.9195 6.28763 23.9163 6.25825 23.9163 11.053L23.9163 15.4848H25.3616H26.8069L26.8048 11.3429C26.8036 9.06483 26.7544 6.87281 26.6956 6.47165C26.4511 4.80791 25.2567 3.23775 23.6842 2.51284C21.9051 1.6927 19.7361 1.84056 18.1711 2.88848C17.859 3.0975 17.6521 3.17419 17.5677 3.11219C17.4969 3.0604 17.0657 2.7253 16.6094 2.36759L15.7797 1.71729L15.7797 8.60104ZM33.6065 2.003C32.3977 2.28746 31.447 2.83596 30.3819 3.86367C29.6174 4.60129 29.3227 4.97328 29.0179 5.58596C28.4829 6.66139 28.2763 7.53217 28.2763 8.71191C28.2763 10.5984 28.869 12.0321 30.2246 13.425C31.1809 14.4075 32.0547 14.9586 33.2306 15.3205C35.8089 16.1141 38.5326 15.4467 40.449 13.5515C40.9677 13.0385 41.7546 11.9285 41.8266 11.6084C41.8389 11.5538 41.5117 11.3218 41.0995 11.0928C40.6873 10.8639 40.1497 10.5633 39.9047 10.4247L39.4592 10.1729L39.1242 10.7505C38.6932 11.4938 37.9899 12.1457 37.2164 12.5188C36.4235 12.9012 34.9878 12.998 34.0489 12.7324C33.7166 12.6384 33.4447 12.5239 33.4447 12.478C33.4447 12.4103 40.3896 6.38777 41.339 5.63222C41.6064 5.41935 41.607 5.4156 41.4201 5.05913C41.0934 4.43634 39.5703 3.06905 38.7228 2.63788C37.2292 1.87796 35.2053 1.62685 33.6065 2.003ZM93.0775 8.76401V15.6932H94.5764H96.0752V11.2852V6.87729L96.3573 6.32629C96.8862 5.29327 98.0756 4.7828 99.2037 5.10457C99.5103 5.19209 99.7693 5.25409 99.7794 5.24242C99.8664 5.14249 101 2.85732 101 2.78188C101 2.7277 100.723 2.57713 100.384 2.44741C99.882 2.25474 99.5524 2.21025 98.5911 2.20546C97.2634 2.19879 96.721 2.33529 95.7019 2.93245L95.0869 3.29287L94.1477 2.5639C93.631 2.16284 93.1789 1.83483 93.1429 1.83483C93.1069 1.83483 93.0775 4.95296 93.0775 8.76401ZM42.4378 1.99446C42.4378 2.02499 43.2086 3.35841 44.1507 4.95754C45.0929 6.55677 45.8637 7.88635 45.8637 7.91219C45.8637 7.95751 41.8853 14.7647 41.4516 15.4614L41.2392 15.8028L42.9283 15.774L44.6174 15.7453L45.9936 13.4008C46.7505 12.1114 47.4099 10.9912 47.459 10.9116C47.5214 10.8105 47.9909 11.5243 49.0179 13.2821L50.4876 15.7974H52.1433C53.0538 15.7974 53.7791 15.7623 53.755 15.7192C53.7309 15.6762 52.7043 13.9093 51.4736 11.7926C50.243 9.67605 49.245 7.9151 49.2559 7.87947C49.2669 7.84383 50.0014 6.5673 50.8883 5.04257C51.7752 3.51794 52.5307 2.19462 52.5672 2.10199C52.627 1.95049 52.4671 1.93642 50.9884 1.96226L49.3432 1.99112L48.4769 3.47678C48.0004 4.2939 47.5902 4.98244 47.5651 5.00683C47.5401 5.03111 47.1109 4.35121 46.6113 3.49585L45.7031 1.94059L44.0704 1.93975C43.1725 1.93934 42.4378 1.96393 42.4378 1.99446ZM70.6965 2.19462C69.3675 2.3156 69.343 2.32258 68.4637 2.83127C66.7331 3.83251 65.5629 4.98286 65.5629 5.68286C65.5629 5.85885 65.5235 6.00275 65.4754 6.00275C65.3327 6.00275 65.0276 7.07766 65.0276 7.58011C65.0276 7.83581 64.9753 8.09589 64.9115 8.15799C64.7247 8.33981 64.6687 9.45765 64.8075 10.2346C65.1412 12.1029 66.1074 13.5259 67.8029 14.646C68.3378 14.9993 68.6109 15.1095 69.0321 15.1418C69.3298 15.1647 69.6557 15.2558 69.7563 15.3443C69.8567 15.4328 69.9841 15.478 70.0392 15.4449C70.0945 15.4116 70.2734 15.5052 70.4369 15.6528L70.7344 15.9211L72.5759 15.8697C73.5887 15.8415 74.5088 15.7724 74.6206 15.7163C74.7322 15.6602 75.1282 15.4811 75.5005 15.3184C75.8727 15.1556 76.3864 14.8334 76.6421 14.6024C76.8976 14.3713 77.2795 14.0513 77.4909 13.8913C77.7021 13.7312 77.8749 13.5393 77.8749 13.4646C77.8749 13.39 77.975 13.2408 78.0972 13.133C78.3689 12.8938 78.8762 11.8776 78.7911 11.7433C78.7572 11.69 78.8033 11.5743 78.8937 11.4864C79.1313 11.2551 79.3167 10.1986 79.1533 10.007C79.0371 9.8708 79.0865 9.81391 79.2934 9.84579C79.538 9.8833 79.2684 7.63544 78.9575 7.04474C78.8519 6.84415 78.7337 6.55417 78.6948 6.40048C78.6557 6.24668 78.5275 6.09111 78.41 6.05475C78.2646 6.00984 78.1961 5.8971 78.1961 5.70277C78.1961 5.54553 78.1004 5.32599 77.9832 5.21491C77.4178 4.67819 77.3474 4.63119 77.2217 4.70674C77.1298 4.76196 77.1095 4.73477 77.1555 4.61806C77.1991 4.5074 77.1107 4.35851 76.8978 4.18418C76.7196 4.0382 76.5379 3.91879 76.4941 3.91879C76.4504 3.91879 76.2527 3.77812 76.0548 3.60619C75.857 3.43427 75.6432 3.2936 75.5797 3.2936C75.5162 3.2936 75.2336 3.17408 74.9516 3.02789C74.4752 2.78105 74.4165 2.77313 74.1237 2.91526C73.9446 3.00226 73.7823 3.02696 73.7477 2.97257C73.7143 2.91995 73.7379 2.87681 73.8003 2.87681C73.8626 2.87681 73.9135 2.84159 73.9134 2.79866C73.9131 2.68748 73.2557 2.65653 73.1183 2.76115C73.0552 2.80918 72.57 2.87566 72.0401 2.9089C71.1724 2.96329 71.1097 2.95548 71.4097 2.82992C71.866 2.63903 72.4572 1.99675 72.1204 2.05781C72.0761 2.06583 71.4354 2.12741 70.6965 2.19462ZM80.5535 6.60189C80.5547 8.87998 80.6039 11.072 80.6627 11.4732C81.2044 15.16 85.6319 17.1679 88.9418 15.2279C89.2875 15.0254 89.6181 14.8596 89.6762 14.8596C89.7343 14.8596 90.15 15.1551 90.5999 15.5163C91.0499 15.8775 91.4783 16.2084 91.5519 16.2518C91.6584 16.3146 91.6857 14.9162 91.6857 9.39534V2.46001L90.1869 2.46001H88.688L88.6869 6.81029C88.6859 11.1555 88.6857 11.1612 88.4346 11.6858C87.9989 12.5965 87.2055 13.0882 86.1721 13.0882C85.4341 13.0882 84.9033 12.88 84.3661 12.3798C83.541 11.6116 83.5541 11.7017 83.5515 6.81029L83.5491 2.46001H82.0502H80.5514L80.5535 6.60189ZM70.9159 3.02091C70.9159 3.0429 70.797 3.08302 70.6515 3.11011C70.5061 3.1372 70.4125 3.11917 70.4437 3.0702C70.4985 2.98382 70.9159 2.94037 70.9159 3.02091ZM70.1665 3.1894C70.1665 3.24671 70.1183 3.2936 70.0594 3.2936C70.0006 3.2936 69.9524 3.24671 69.9524 3.1894C69.9524 3.13209 70.0006 3.0852 70.0594 3.0852C70.1183 3.0852 70.1665 3.13209 70.1665 3.1894ZM68.7212 3.94015C68.5445 4.063 68.123 4.43488 67.7844 4.76665C67.4458 5.09842 67.1688 5.32963 67.1688 5.28045C67.1688 5.23127 67.2884 5.0806 67.4346 4.94566C67.5808 4.81073 67.7012 4.64661 67.7023 4.58107C67.7054 4.37674 68.2936 3.83658 68.5673 3.78646C69.0339 3.70112 69.0468 3.71394 68.7212 3.94015ZM8.89693 4.79249C9.72173 5.16125 10.6413 6.06819 11.0452 6.91126C11.2986 7.44027 11.3336 7.64054 11.3322 8.55561C11.331 9.39774 11.2833 9.71315 11.0836 10.2004C10.7382 11.0437 9.85052 11.9502 8.94661 12.383C8.27266 12.7058 8.17406 12.7234 7.05613 12.7212C5.97385 12.7191 5.82354 12.6937 5.23417 12.415C1.7426 10.7634 2.07127 5.74215 5.74656 4.58628C6.02856 4.49761 6.57896 4.45395 7.21479 4.46979C8.07267 4.49115 8.33604 4.54169 8.89693 4.79249ZM37.058 4.85439C37.3671 4.98432 37.6167 5.11999 37.6127 5.15593C37.6086 5.19188 36.2263 6.40809 34.541 7.85863L31.4768 10.4959L31.3174 10.2031C31.1045 9.81203 31.0294 8.30345 31.1884 7.6121C31.4666 6.40173 32.667 5.15396 33.9503 4.74091C34.8018 4.46677 36.2632 4.52022 37.058 4.85439ZM73.5894 5.02162C76.2804 5.79946 77.6128 8.79203 76.374 11.2758C75.5192 12.9894 73.3928 14.0702 71.5368 13.7343C67.909 13.0776 66.4121 8.95292 68.8455 6.31868C70.009 5.05913 71.9157 4.53783 73.5894 5.02162ZM67.4408 12.7826C67.5393 12.9378 67.4251 13.0221 67.2202 12.9456C67.1256 12.9103 67.0781 12.8341 67.1148 12.7764C67.2016 12.6398 67.352 12.6426 67.4408 12.7826Z" fill="#001E41"/>
</svg>
